<mxfile host="app.diagrams.net" modified="2022-01-11T08:53:01.224Z" agent="5.0 (Windows NT 10.0; Win64; x64) AppleWebKit/537.36 (KHTML, like Gecko) Chrome/90.0.4430.212 Safari/537.36" etag="ilcAfCXcKSkopVabRhrT" version="16.0.0" type="github">
  <diagram id="DMR4-lQdNLGYw_NXonTv" name="Page-1">
    <mxGraphModel dx="2677" dy="2193" grid="1" gridSize="10" guides="1" tooltips="1" connect="1" arrows="1" fold="1" page="1" pageScale="1" pageWidth="827" pageHeight="1169" math="0" shadow="0">
      <root>
        <mxCell id="0" />
        <mxCell id="1" parent="0" />
        <mxCell id="D52gQVPp6dP8xNFlkLyT-1" value="" style="edgeStyle=orthogonalEdgeStyle;rounded=0;orthogonalLoop=1;jettySize=auto;html=1;" edge="1" parent="1" source="D52gQVPp6dP8xNFlkLyT-2" target="D52gQVPp6dP8xNFlkLyT-37">
          <mxGeometry relative="1" as="geometry" />
        </mxCell>
        <mxCell id="D52gQVPp6dP8xNFlkLyT-2" value="" style="verticalLabelPosition=bottom;verticalAlign=top;html=1;shape=mxgraph.basic.rect;fillColor2=none;strokeWidth=1;size=20;indent=5;fillColor=#f5f5f5;strokeColor=#666666;fontColor=#333333;" vertex="1" parent="1">
          <mxGeometry x="-85" y="60" width="1220" height="700" as="geometry" />
        </mxCell>
        <mxCell id="D52gQVPp6dP8xNFlkLyT-3" style="edgeStyle=orthogonalEdgeStyle;rounded=0;orthogonalLoop=1;jettySize=auto;html=1;exitX=0.5;exitY=1;exitDx=0;exitDy=0;entryX=0.5;entryY=0;entryDx=0;entryDy=0;" edge="1" parent="1" source="D52gQVPp6dP8xNFlkLyT-5" target="D52gQVPp6dP8xNFlkLyT-7">
          <mxGeometry relative="1" as="geometry" />
        </mxCell>
        <mxCell id="D52gQVPp6dP8xNFlkLyT-4" style="edgeStyle=orthogonalEdgeStyle;rounded=0;orthogonalLoop=1;jettySize=auto;html=1;exitX=0.5;exitY=1;exitDx=0;exitDy=0;" edge="1" parent="1" source="D52gQVPp6dP8xNFlkLyT-5" target="D52gQVPp6dP8xNFlkLyT-8">
          <mxGeometry relative="1" as="geometry" />
        </mxCell>
        <mxCell id="D52gQVPp6dP8xNFlkLyT-5" value="&lt;h2 id=&quot;一nginxkeepalived-双机-主从模式&quot; style=&quot;box-sizing: border-box ; outline: 0px ; margin-top: 8px ; margin-bottom: 16px ; padding: 0px ; line-height: 30px ; overflow-wrap: break-word&quot;&gt;&lt;font face=&quot;pingfang sc, microsoft yahei, simhei, arial, simsun&quot; style=&quot;font-weight: normal&quot;&gt;Nginx+keepalived&lt;/font&gt;&lt;br&gt;&lt;/h2&gt;" style="shape=ext;double=1;rounded=0;whiteSpace=wrap;html=1;fillColor=#ffe6cc;strokeColor=#d79b00;" vertex="1" parent="1">
          <mxGeometry x="430" y="-120" width="190" height="80" as="geometry" />
        </mxCell>
        <mxCell id="D52gQVPp6dP8xNFlkLyT-6" value="Nacos&lt;br&gt;注册中心" style="shape=ext;double=1;rounded=0;whiteSpace=wrap;html=1;fillColor=#d5e8d4;strokeColor=#82b366;" vertex="1" parent="1">
          <mxGeometry x="1080" y="90" width="120" height="80" as="geometry" />
        </mxCell>
        <mxCell id="D52gQVPp6dP8xNFlkLyT-7" value="Api Gateway" style="shape=ext;double=1;rounded=0;whiteSpace=wrap;html=1;fillColor=#ffe6cc;strokeColor=#d79b00;" vertex="1" parent="1">
          <mxGeometry x="250" y="100" width="170" height="50" as="geometry" />
        </mxCell>
        <mxCell id="D52gQVPp6dP8xNFlkLyT-8" value="&lt;span&gt;Api Gateway&lt;/span&gt;" style="shape=ext;double=1;rounded=0;whiteSpace=wrap;html=1;fillColor=#ffe6cc;strokeColor=#d79b00;" vertex="1" parent="1">
          <mxGeometry x="620" y="100" width="170" height="50" as="geometry" />
        </mxCell>
        <mxCell id="D52gQVPp6dP8xNFlkLyT-9" style="edgeStyle=orthogonalEdgeStyle;rounded=0;orthogonalLoop=1;jettySize=auto;html=1;exitX=0;exitY=0.5;exitDx=0;exitDy=0;entryX=0.5;entryY=0;entryDx=0;entryDy=0;" edge="1" parent="1" source="D52gQVPp6dP8xNFlkLyT-11" target="D52gQVPp6dP8xNFlkLyT-17">
          <mxGeometry relative="1" as="geometry" />
        </mxCell>
        <mxCell id="D52gQVPp6dP8xNFlkLyT-10" style="edgeStyle=orthogonalEdgeStyle;rounded=0;orthogonalLoop=1;jettySize=auto;html=1;exitX=1;exitY=0.5;exitDx=0;exitDy=0;entryX=0.55;entryY=-0.007;entryDx=0;entryDy=0;entryPerimeter=0;" edge="1" parent="1" source="D52gQVPp6dP8xNFlkLyT-11" target="D52gQVPp6dP8xNFlkLyT-22">
          <mxGeometry relative="1" as="geometry" />
        </mxCell>
        <mxCell id="D52gQVPp6dP8xNFlkLyT-11" value="Load balancing" style="shape=ext;double=1;rounded=0;whiteSpace=wrap;html=1;fillColor=#fff2cc;strokeColor=#d6b656;" vertex="1" parent="1">
          <mxGeometry x="280" y="150" width="110" height="50" as="geometry" />
        </mxCell>
        <mxCell id="D52gQVPp6dP8xNFlkLyT-12" style="edgeStyle=orthogonalEdgeStyle;rounded=0;orthogonalLoop=1;jettySize=auto;html=1;exitX=0;exitY=0.5;exitDx=0;exitDy=0;entryX=0.543;entryY=0.022;entryDx=0;entryDy=0;entryPerimeter=0;" edge="1" parent="1" source="D52gQVPp6dP8xNFlkLyT-14" target="D52gQVPp6dP8xNFlkLyT-22">
          <mxGeometry relative="1" as="geometry" />
        </mxCell>
        <mxCell id="D52gQVPp6dP8xNFlkLyT-13" style="edgeStyle=orthogonalEdgeStyle;rounded=0;orthogonalLoop=1;jettySize=auto;html=1;exitX=1;exitY=0.5;exitDx=0;exitDy=0;entryX=0.555;entryY=-0.007;entryDx=0;entryDy=0;entryPerimeter=0;" edge="1" parent="1" source="D52gQVPp6dP8xNFlkLyT-14" target="D52gQVPp6dP8xNFlkLyT-28">
          <mxGeometry relative="1" as="geometry" />
        </mxCell>
        <mxCell id="D52gQVPp6dP8xNFlkLyT-14" value="Load balancing" style="shape=ext;double=1;rounded=0;whiteSpace=wrap;html=1;fillColor=#fff2cc;strokeColor=#d6b656;" vertex="1" parent="1">
          <mxGeometry x="650" y="150" width="110" height="50" as="geometry" />
        </mxCell>
        <mxCell id="D52gQVPp6dP8xNFlkLyT-15" value="Feign Client" style="shape=ext;double=1;rounded=0;whiteSpace=wrap;html=1;fillColor=#d5e8d4;strokeColor=#82b366;" vertex="1" parent="1">
          <mxGeometry x="280" y="200" width="110" height="50" as="geometry" />
        </mxCell>
        <mxCell id="D52gQVPp6dP8xNFlkLyT-16" value="Feign Client" style="shape=ext;double=1;rounded=0;whiteSpace=wrap;html=1;fillColor=#d5e8d4;strokeColor=#82b366;" vertex="1" parent="1">
          <mxGeometry x="650" y="200" width="110" height="50" as="geometry" />
        </mxCell>
        <mxCell id="D52gQVPp6dP8xNFlkLyT-17" value="" style="shape=ext;double=1;rounded=0;whiteSpace=wrap;html=1;fillColor=#dae8fc;strokeColor=#6c8ebf;" vertex="1" parent="1">
          <mxGeometry x="20" y="320" width="200" height="90" as="geometry" />
        </mxCell>
        <mxCell id="D52gQVPp6dP8xNFlkLyT-18" value="" style="shape=ext;double=1;rounded=0;whiteSpace=wrap;html=1;fillColor=#dae8fc;strokeColor=#6c8ebf;" vertex="1" parent="1">
          <mxGeometry x="30" y="330" width="200" height="90" as="geometry" />
        </mxCell>
        <mxCell id="D52gQVPp6dP8xNFlkLyT-19" style="edgeStyle=orthogonalEdgeStyle;rounded=0;orthogonalLoop=1;jettySize=auto;html=1;exitX=0.5;exitY=1;exitDx=0;exitDy=0;entryX=0;entryY=0.5;entryDx=0;entryDy=0;" edge="1" parent="1" source="D52gQVPp6dP8xNFlkLyT-21" target="D52gQVPp6dP8xNFlkLyT-33">
          <mxGeometry relative="1" as="geometry" />
        </mxCell>
        <mxCell id="D52gQVPp6dP8xNFlkLyT-20" value="" style="edgeStyle=orthogonalEdgeStyle;rounded=0;orthogonalLoop=1;jettySize=auto;html=1;" edge="1" parent="1" source="D52gQVPp6dP8xNFlkLyT-21" target="D52gQVPp6dP8xNFlkLyT-42">
          <mxGeometry relative="1" as="geometry" />
        </mxCell>
        <mxCell id="D52gQVPp6dP8xNFlkLyT-21" value="业务1&lt;br&gt;服务集群" style="shape=ext;double=1;rounded=0;whiteSpace=wrap;html=1;fillColor=#dae8fc;strokeColor=#6c8ebf;" vertex="1" parent="1">
          <mxGeometry x="40" y="340" width="200" height="90" as="geometry" />
        </mxCell>
        <mxCell id="D52gQVPp6dP8xNFlkLyT-22" value="" style="shape=ext;double=1;rounded=0;whiteSpace=wrap;html=1;fillColor=#dae8fc;strokeColor=#6c8ebf;" vertex="1" parent="1">
          <mxGeometry x="415" y="320" width="200" height="90" as="geometry" />
        </mxCell>
        <mxCell id="D52gQVPp6dP8xNFlkLyT-23" value="" style="shape=ext;double=1;rounded=0;whiteSpace=wrap;html=1;fillColor=#dae8fc;strokeColor=#6c8ebf;" vertex="1" parent="1">
          <mxGeometry x="425" y="330" width="200" height="90" as="geometry" />
        </mxCell>
        <mxCell id="D52gQVPp6dP8xNFlkLyT-24" style="edgeStyle=orthogonalEdgeStyle;rounded=0;orthogonalLoop=1;jettySize=auto;html=1;entryX=0.544;entryY=-0.044;entryDx=0;entryDy=0;entryPerimeter=0;" edge="1" parent="1" source="D52gQVPp6dP8xNFlkLyT-27" target="D52gQVPp6dP8xNFlkLyT-33">
          <mxGeometry relative="1" as="geometry">
            <Array as="points">
              <mxPoint x="540" y="470" />
              <mxPoint x="540" y="470" />
            </Array>
          </mxGeometry>
        </mxCell>
        <mxCell id="D52gQVPp6dP8xNFlkLyT-25" value="" style="edgeStyle=orthogonalEdgeStyle;rounded=0;orthogonalLoop=1;jettySize=auto;html=1;" edge="1" parent="1" source="D52gQVPp6dP8xNFlkLyT-27" target="D52gQVPp6dP8xNFlkLyT-42">
          <mxGeometry relative="1" as="geometry" />
        </mxCell>
        <mxCell id="D52gQVPp6dP8xNFlkLyT-26" value="" style="edgeStyle=orthogonalEdgeStyle;rounded=0;orthogonalLoop=1;jettySize=auto;html=1;" edge="1" parent="1" source="D52gQVPp6dP8xNFlkLyT-27" target="D52gQVPp6dP8xNFlkLyT-43">
          <mxGeometry relative="1" as="geometry" />
        </mxCell>
        <mxCell id="D52gQVPp6dP8xNFlkLyT-27" value="&lt;span&gt;业务2&lt;/span&gt;&lt;br&gt;&lt;span&gt;服务集群&lt;/span&gt;" style="shape=ext;double=1;rounded=0;whiteSpace=wrap;html=1;fillColor=#dae8fc;strokeColor=#6c8ebf;" vertex="1" parent="1">
          <mxGeometry x="435" y="340" width="200" height="90" as="geometry" />
        </mxCell>
        <mxCell id="D52gQVPp6dP8xNFlkLyT-28" value="" style="shape=ext;double=1;rounded=0;whiteSpace=wrap;html=1;fillColor=#dae8fc;strokeColor=#6c8ebf;" vertex="1" parent="1">
          <mxGeometry x="810" y="320" width="200" height="90" as="geometry" />
        </mxCell>
        <mxCell id="D52gQVPp6dP8xNFlkLyT-29" value="" style="shape=ext;double=1;rounded=0;whiteSpace=wrap;html=1;fillColor=#dae8fc;strokeColor=#6c8ebf;" vertex="1" parent="1">
          <mxGeometry x="820" y="330" width="200" height="90" as="geometry" />
        </mxCell>
        <mxCell id="D52gQVPp6dP8xNFlkLyT-30" style="edgeStyle=orthogonalEdgeStyle;rounded=0;orthogonalLoop=1;jettySize=auto;html=1;exitX=0.5;exitY=1;exitDx=0;exitDy=0;entryX=1;entryY=0.5;entryDx=0;entryDy=0;" edge="1" parent="1" source="D52gQVPp6dP8xNFlkLyT-32" target="D52gQVPp6dP8xNFlkLyT-33">
          <mxGeometry relative="1" as="geometry" />
        </mxCell>
        <mxCell id="D52gQVPp6dP8xNFlkLyT-31" value="" style="edgeStyle=orthogonalEdgeStyle;rounded=0;orthogonalLoop=1;jettySize=auto;html=1;" edge="1" parent="1" source="D52gQVPp6dP8xNFlkLyT-32" target="D52gQVPp6dP8xNFlkLyT-43">
          <mxGeometry relative="1" as="geometry" />
        </mxCell>
        <mxCell id="D52gQVPp6dP8xNFlkLyT-32" value="&lt;span&gt;业务3&lt;/span&gt;&lt;br&gt;&lt;span&gt;服务集群&lt;/span&gt;" style="shape=ext;double=1;rounded=0;whiteSpace=wrap;html=1;fillColor=#dae8fc;strokeColor=#6c8ebf;" vertex="1" parent="1">
          <mxGeometry x="830" y="340" width="200" height="90" as="geometry" />
        </mxCell>
        <mxCell id="D52gQVPp6dP8xNFlkLyT-33" value="Redis缓存池" style="shape=ext;double=1;rounded=0;whiteSpace=wrap;html=1;fillColor=#bac8d3;strokeColor=#23445d;" vertex="1" parent="1">
          <mxGeometry x="350" y="590" width="350" height="60" as="geometry" />
        </mxCell>
        <mxCell id="D52gQVPp6dP8xNFlkLyT-34" style="edgeStyle=orthogonalEdgeStyle;rounded=0;orthogonalLoop=1;jettySize=auto;html=1;" edge="1" parent="1" source="D52gQVPp6dP8xNFlkLyT-37" target="D52gQVPp6dP8xNFlkLyT-44">
          <mxGeometry relative="1" as="geometry" />
        </mxCell>
        <mxCell id="D52gQVPp6dP8xNFlkLyT-35" value="" style="edgeStyle=orthogonalEdgeStyle;rounded=0;orthogonalLoop=1;jettySize=auto;html=1;" edge="1" parent="1" source="D52gQVPp6dP8xNFlkLyT-37" target="D52gQVPp6dP8xNFlkLyT-45">
          <mxGeometry relative="1" as="geometry" />
        </mxCell>
        <mxCell id="D52gQVPp6dP8xNFlkLyT-36" style="edgeStyle=orthogonalEdgeStyle;rounded=0;orthogonalLoop=1;jettySize=auto;html=1;exitX=1;exitY=0.5;exitDx=0;exitDy=0;entryX=0.5;entryY=0;entryDx=0;entryDy=0;" edge="1" parent="1" source="D52gQVPp6dP8xNFlkLyT-37" target="D52gQVPp6dP8xNFlkLyT-51">
          <mxGeometry relative="1" as="geometry">
            <mxPoint x="920" y="940" as="targetPoint" />
          </mxGeometry>
        </mxCell>
        <mxCell id="D52gQVPp6dP8xNFlkLyT-37" value="RabbitMQ消息队列" style="shape=ext;double=1;rounded=0;whiteSpace=wrap;html=1;fillColor=#dae8fc;strokeColor=#6c8ebf;gradientColor=#7ea6e0;" vertex="1" parent="1">
          <mxGeometry x="422.5" y="810" width="205" height="60" as="geometry" />
        </mxCell>
        <mxCell id="D52gQVPp6dP8xNFlkLyT-38" style="edgeStyle=orthogonalEdgeStyle;rounded=0;orthogonalLoop=1;jettySize=auto;html=1;exitX=0;exitY=0.5;exitDx=0;exitDy=0;entryX=0.997;entryY=0.504;entryDx=0;entryDy=0;entryPerimeter=0;" edge="1" parent="1" source="D52gQVPp6dP8xNFlkLyT-39" target="D52gQVPp6dP8xNFlkLyT-2">
          <mxGeometry relative="1" as="geometry" />
        </mxCell>
        <mxCell id="D52gQVPp6dP8xNFlkLyT-39" value="Sentry&lt;br&gt;监控系统" style="shape=ext;double=1;rounded=0;whiteSpace=wrap;html=1;fillColor=#bac8d3;strokeColor=#23445d;" vertex="1" parent="1">
          <mxGeometry x="1240" y="270" width="120" height="80" as="geometry" />
        </mxCell>
        <mxCell id="D52gQVPp6dP8xNFlkLyT-40" style="edgeStyle=orthogonalEdgeStyle;rounded=0;orthogonalLoop=1;jettySize=auto;html=1;exitX=0;exitY=0.5;exitDx=0;exitDy=0;entryX=0.997;entryY=0.506;entryDx=0;entryDy=0;entryPerimeter=0;" edge="1" parent="1" source="D52gQVPp6dP8xNFlkLyT-41" target="D52gQVPp6dP8xNFlkLyT-2">
          <mxGeometry relative="1" as="geometry">
            <Array as="points">
              <mxPoint x="1190" y="510" />
              <mxPoint x="1190" y="414" />
            </Array>
          </mxGeometry>
        </mxCell>
        <mxCell id="D52gQVPp6dP8xNFlkLyT-41" value="ZipKin&lt;br&gt;链路追踪" style="shape=ext;double=1;rounded=0;whiteSpace=wrap;html=1;fillColor=#fad9d5;strokeColor=#ae4132;" vertex="1" parent="1">
          <mxGeometry x="1240" y="470" width="120" height="80" as="geometry" />
        </mxCell>
        <mxCell id="D52gQVPp6dP8xNFlkLyT-42" value="Feign" style="shape=ext;double=1;rounded=0;whiteSpace=wrap;html=1;fillColor=#d5e8d4;strokeColor=#82b366;" vertex="1" parent="1">
          <mxGeometry x="295" y="365" width="80" height="40" as="geometry" />
        </mxCell>
        <mxCell id="D52gQVPp6dP8xNFlkLyT-43" value="Feign" style="shape=ext;double=1;rounded=0;whiteSpace=wrap;html=1;fillColor=#d5e8d4;strokeColor=#82b366;" vertex="1" parent="1">
          <mxGeometry x="680" y="365" width="80" height="40" as="geometry" />
        </mxCell>
        <mxCell id="D52gQVPp6dP8xNFlkLyT-44" value="分布式事务中心" style="rounded=0;whiteSpace=wrap;html=1;fillColor=#fff2cc;strokeColor=#d6b656;gradientColor=#ffd966;" vertex="1" parent="1">
          <mxGeometry x="-70" y="950" width="230" height="60" as="geometry" />
        </mxCell>
        <mxCell id="D52gQVPp6dP8xNFlkLyT-45" value="ESB 数据总线" style="shape=ext;double=1;rounded=0;whiteSpace=wrap;html=1;fillColor=#e6d0de;strokeColor=#996185;gradientColor=#d5739d;" vertex="1" parent="1">
          <mxGeometry x="422.5" y="950" width="205" height="60" as="geometry" />
        </mxCell>
        <mxCell id="D52gQVPp6dP8xNFlkLyT-46" value="Hystrix" style="shape=ext;double=1;rounded=0;whiteSpace=wrap;html=1;fillColor=#d5e8d4;strokeColor=#82b366;" vertex="1" parent="1">
          <mxGeometry x="295" y="405" width="80" height="40" as="geometry" />
        </mxCell>
        <mxCell id="D52gQVPp6dP8xNFlkLyT-47" value="Hystrix" style="shape=ext;double=1;rounded=0;whiteSpace=wrap;html=1;fillColor=#d5e8d4;strokeColor=#82b366;" vertex="1" parent="1">
          <mxGeometry x="680" y="405" width="80" height="40" as="geometry" />
        </mxCell>
        <mxCell id="D52gQVPp6dP8xNFlkLyT-48" value="Nacos&lt;br&gt;配置中心" style="shape=ext;double=1;rounded=0;whiteSpace=wrap;html=1;fillColor=#f8cecc;strokeColor=#b85450;" vertex="1" parent="1">
          <mxGeometry x="-140" y="90" width="120" height="80" as="geometry" />
        </mxCell>
        <mxCell id="D52gQVPp6dP8xNFlkLyT-49" value="XXLJOB&lt;br&gt;任务调度" style="shape=ext;double=1;rounded=0;whiteSpace=wrap;html=1;fillColor=#e1d5e7;strokeColor=#9673a6;" vertex="1" parent="1">
          <mxGeometry x="1080" y="640" width="120" height="80" as="geometry" />
        </mxCell>
        <mxCell id="D52gQVPp6dP8xNFlkLyT-50" value="ELK&lt;br&gt;实时分布式日志收集" style="shape=ext;double=1;rounded=0;whiteSpace=wrap;html=1;fillColor=#1ba1e2;strokeColor=#006EAF;fontColor=#ffffff;" vertex="1" parent="1">
          <mxGeometry x="-150" y="640" width="120" height="80" as="geometry" />
        </mxCell>
        <mxCell id="D52gQVPp6dP8xNFlkLyT-51" value="事件驱动" style="shape=ext;double=1;rounded=0;whiteSpace=wrap;html=1;fillColor=#f5f5f5;strokeColor=#666666;gradientColor=#b3b3b3;" vertex="1" parent="1">
          <mxGeometry x="820" y="950" width="205" height="60" as="geometry" />
        </mxCell>
        <mxCell id="D52gQVPp6dP8xNFlkLyT-52" value="Reddison分布式锁服务" style="rounded=0;whiteSpace=wrap;html=1;fillColor=#b0e3e6;strokeColor=#0e8088;" vertex="1" parent="1">
          <mxGeometry x="350" y="650" width="350" height="50" as="geometry" />
        </mxCell>
      </root>
    </mxGraphModel>
  </diagram>
</mxfile>
